# Made in Blockbench 4.6.0
mtllib fish_mob.mtl

o fish
v -2.000000000000001 6 -8
v -1.9999999999999991 6 8
v -2.000000000000001 0 -8
v -1.9999999999999991 0 8
v 1.9999999999999991 6 -8
v 2.000000000000001 6 8
v 1.9999999999999991 0 -8
v 2.000000000000001 0 8
v -9.797174393178826e-16 6 -8
v -1.7145055188062944e-15 6 -14
v -9.797174393178826e-16 0 -8
v -1.7145055188062944e-15 0 -14
v -9.797174393178826e-16 6 -8
v -1.7145055188062944e-15 6 -14
v -9.797174393178826e-16 0 -8
v -1.7145055188062944e-15 0 -14
vt 0.5 1
vt 0 1
vt 0 0.8125
vt 0.5 0.8125
vt 0.5 0.625
vt 0.5 0.8125
vt 0 0.8125
vt 0 0.625
vt 0 0.125
vt 0.125 0.125
vt 0.125 0.625
vt 0 0.625
vt 0.25 0.125
vt 0.25 0.625
vt 0.125 0.625
vt 0.125 0.125
vt 0.625 0.8125
vt 0.625 1
vt 0.5 1
vt 0.5 0.8125
vt 0.625 0.8125
vt 0.5 0.8125
vt 0.5 0.625
vt 0.625 0.625
vt 0.4375 0.4375
vt 0.4375 0.625
vt 0.25 0.625
vt 0.25 0.4375
vt 0.625 0.4375
vt 0.625 0.625
vt 0.4375 0.625
vt 0.4375 0.4375
vn -1 0 1.2246467991473532e-16
vn 1 0 -1.2246467991473532e-16
vn 0 1 0
vn 0 -1 0
vn -1.2246467991473532e-16 0 -1
vn 1.2246467991473532e-16 0 1
vn -1 0 1.2246467991473532e-16
vn -1 0 1.2246467991473532e-16
usemtl m_23e43c49-69b9-d6de-345d-29558409aa9a
f 2/1/1 1/2/1 3/3/1
f 2/1/1 3/3/1 4/4/1
f 7/5/2 5/6/2 6/7/2
f 7/5/2 6/7/2 8/8/2
f 5/9/3 1/10/3 2/11/3
f 5/9/3 2/11/3 6/12/3
f 4/13/4 3/14/4 7/15/4
f 4/13/4 7/15/4 8/16/4
f 3/17/5 1/18/5 5/19/5
f 3/17/5 5/19/5 7/20/5
f 6/21/6 2/22/6 4/23/6
f 6/21/6 4/23/6 8/24/6
f 9/25/7 10/26/7 12/27/7
f 9/25/7 12/27/7 11/28/7
f 13/29/8 14/30/8 16/31/8
f 13/29/8 16/31/8 15/32/8
o hat
v 4 6.5 8
v 4 6.5 0
v 4 6 8
v 4 6 0
v -4 6.5 8
v -4 6.5 0
v -4 6 8
v -4 6 0
v 2.5 10.5 6.75
v 2.5 10.5 1.75
v 2.5 6.5 6.75
v 2.5 6.5 1.75
v -2.5 10.5 6.75
v -2.5 10.5 1.75
v -2.5 6.5 6.75
v -2.5 6.5 1.75
vt 0.65625 0.625
vt 0.40625 0.625
vt 0.40625 0.59375
vt 0.65625 0.59375
vt 0.65625 0.5625
vt 0.65625 0.59375
vt 0.40625 0.59375
vt 0.40625 0.5625
vt 0 0.75
vt 0.25 0.75
vt 0.25 1
vt 0 1
vt 0.25 0.5
vt 0.25 0.75
vt 0 0.75
vt 0 0.5
vt 0.5 0.53125
vt 0.5 0.5625
vt 0.25 0.5625
vt 0.25 0.53125
vt 0.5 0.53125
vt 0.25 0.53125
vt 0.25 0.5
vt 0.5 0.5
vt 0.40625 0.6875
vt 0.25 0.6875
vt 0.25 0.5625
vt 0.40625 0.5625
vt 0.5625 0.875
vt 0.5625 1
vt 0.40625 1
vt 0.40625 0.875
vt 0.25 0.84375
vt 0.40625 0.84375
vt 0.40625 1
vt 0.25 1
vt 0.40625 0.6875
vt 0.40625 0.84375
vt 0.25 0.84375
vt 0.25 0.6875
vt 0.5625 0.75
vt 0.5625 0.875
vt 0.40625 0.875
vt 0.40625 0.75
vt 0.5625 0.75
vt 0.40625 0.75
vt 0.40625 0.625
vt 0.5625 0.625
vn 1 0 0
vn -1 0 0
vn 0 1 0
vn 0 -1 0
vn 0 0 1
vn 0 0 -1
vn 1 0 0
vn -1 0 0
vn 0 1 0
vn 0 -1 0
vn 0 0 1
vn 0 0 -1
usemtl m_83900c00-5a9b-195e-6ed4-836aa99fea4f
f 18/33/9 17/34/9 19/35/9
f 18/33/9 19/35/9 20/36/9
f 23/37/10 21/38/10 22/39/10
f 23/37/10 22/39/10 24/40/10
f 21/41/11 17/42/11 18/43/11
f 21/41/11 18/43/11 22/44/11
f 20/45/12 19/46/12 23/47/12
f 20/45/12 23/47/12 24/48/12
f 19/49/13 17/50/13 21/51/13
f 19/49/13 21/51/13 23/52/13
f 22/53/14 18/54/14 20/55/14
f 22/53/14 20/55/14 24/56/14
f 26/57/15 25/58/15 27/59/15
f 26/57/15 27/59/15 28/60/15
f 31/61/16 29/62/16 30/63/16
f 31/61/16 30/63/16 32/64/16
f 29/65/17 25/66/17 26/67/17
f 29/65/17 26/67/17 30/68/17
f 28/69/18 27/70/18 31/71/18
f 28/69/18 31/71/18 32/72/18
f 27/73/19 25/74/19 29/75/19
f 27/73/19 29/75/19 31/76/19
f 30/77/20 26/78/20 28/79/20
f 30/77/20 28/79/20 32/80/20
o cigarette
v 1.75 2.75 14.5
v 1.75 2.75 8
v 1.75 2.25 14.5
v 1.75 2.25 8
v 1.25 2.75 14.5
v 1.25 2.75 8
v 1.25 2.25 14.5
v 1.25 2.25 8
vt 0.4375 1
vt 0 1
vt 0 0.9375
vt 0.4375 0.9375
vt 0.4375 0.875
vt 0.4375 0.9375
vt 0 0.9375
vt 0 0.875
vt 0 0.4375
vt 0.0625 0.4375
vt 0.0625 0.875
vt 0 0.875
vt 0.125 0.4375
vt 0.125 0.875
vt 0.0625 0.875
vt 0.0625 0.4375
vt 0.1875 0.8125
vt 0.1875 0.875
vt 0.125 0.875
vt 0.125 0.8125
vt 0.1875 0.8125
vt 0.125 0.8125
vt 0.125 0.75
vt 0.1875 0.75
vn 1 0 0
vn -1 0 0
vn 0 1 0
vn 0 -1 0
vn 0 0 1
vn 0 0 -1
usemtl m_fecae773-9a08-10aa-3e54-e09d9f41e060
f 34/81/21 33/82/21 35/83/21
f 34/81/21 35/83/21 36/84/21
f 39/85/22 37/86/22 38/87/22
f 39/85/22 38/87/22 40/88/22
f 37/89/23 33/90/23 34/91/23
f 37/89/23 34/91/23 38/92/23
f 36/93/24 35/94/24 39/95/24
f 36/93/24 39/95/24 40/96/24
f 35/97/25 33/98/25 37/99/25
f 35/97/25 37/99/25 39/100/25
f 38/101/26 34/102/26 36/103/26
f 38/101/26 36/103/26 40/104/26
o IBM briefcase
v 4 0 5
v 4 0 -5
v 4 -6 5
v 4 -6 -5
v 2 0 5
v 2 0 -5
v 2 -6 5
v 2 -6 -5
v 3.25 2 3
v 3.25 2 -3
v 3.25 0 3
v 3.25 0 -3
v 2.75 2 3
v 2.75 2 -3
v 2.75 0 3
v 2.75 0 -3
vt 0.3125 1
vt 0 1
vt 0 0.8125
vt 0.3125 0.8125
vt 0.3125 0.625
vt 0.3125 0.8125
vt 0 0.8125
vt 0 0.625
vt 0.3125 0.6875
vt 0.375 0.6875
vt 0.375 1
vt 0.3125 1
vt 0.375 0.375
vt 0.375 0.6875
vt 0.3125 0.6875
vt 0.3125 0.375
vt 0.0625 0.4375
vt 0.0625 0.625
vt 0 0.625
vt 0 0.4375
vt 0.4375 1
vt 0.375 1
vt 0.375 0.8125
vt 0.4375 0.8125
vt 0.25 0.625
vt 0.0625 0.625
vt 0.0625 0.5625
vt 0.25 0.5625
vt 0.5625 0.75
vt 0.5625 0.8125
vt 0.375 0.8125
vt 0.375 0.75
vt 0.25 0.4375
vt 0.28125 0.4375
vt 0.28125 0.625
vt 0.25 0.625
vt 0.40625 0.5625
vt 0.40625 0.75
vt 0.375 0.75
vt 0.375 0.5625
vt 0.3125 0.5625
vt 0.3125 0.625
vt 0.28125 0.625
vt 0.28125 0.5625
vt 0.4375 0.75
vt 0.40625 0.75
vt 0.40625 0.6875
vt 0.4375 0.6875
vn 1 0 0
vn -1 0 0
vn 0 1 0
vn 0 -1 0
vn 0 0 1
vn 0 0 -1
vn 1 0 0
vn -1 0 0
vn 0 1 0
vn 0 -1 0
vn 0 0 1
vn 0 0 -1
usemtl m_3b7c854c-7446-5ce4-b465-9e2d623bf9b3
f 42/105/27 41/106/27 43/107/27
f 42/105/27 43/107/27 44/108/27
f 47/109/28 45/110/28 46/111/28
f 47/109/28 46/111/28 48/112/28
f 45/113/29 41/114/29 42/115/29
f 45/113/29 42/115/29 46/116/29
f 44/117/30 43/118/30 47/119/30
f 44/117/30 47/119/30 48/120/30
f 43/121/31 41/122/31 45/123/31
f 43/121/31 45/123/31 47/124/31
f 46/125/32 42/126/32 44/127/32
f 46/125/32 44/127/32 48/128/32
f 50/129/33 49/130/33 51/131/33
f 50/129/33 51/131/33 52/132/33
f 55/133/34 53/134/34 54/135/34
f 55/133/34 54/135/34 56/136/34
f 53/137/35 49/138/35 50/139/35
f 53/137/35 50/139/35 54/140/35
f 52/141/36 51/142/36 55/143/36
f 52/141/36 55/143/36 56/144/36
f 51/145/37 49/146/37 53/147/37
f 51/145/37 53/147/37 55/148/37
f 54/149/38 50/150/38 52/151/38
f 54/149/38 52/151/38 56/152/38