# Made in Blockbench 4.6.0
mtllib fishing_bobber.mtl

o cube
v 0.5 1 0.5
v 0.5 1 -0.5
v 0.5 0 0.5
v 0.5 0 -0.5
v -0.5 1 0.5
v -0.5 1 -0.5
v -0.5 0 0.5
v -0.5 0 -0.5
vt 0.3333333333333333 1
vt 0 1
vt 0 0.6666666666666667
vt 0.3333333333333333 0.6666666666666667
vt 0.3333333333333333 0.33333333333333337
vt 0.3333333333333333 0.6666666666666667
vt 0 0.6666666666666667
vt 0 0.33333333333333337
vt 0.3333333333333333 0.6666666666666667
vt 0.6666666666666666 0.6666666666666667
vt 0.6666666666666666 1
vt 0.3333333333333333 1
vt 0.6666666666666666 0.33333333333333337
vt 0.6666666666666666 0.6666666666666667
vt 0.3333333333333333 0.6666666666666667
vt 0.3333333333333333 0.33333333333333337
vt 0.3333333333333333 0
vt 0.3333333333333333 0.33333333333333337
vt 0 0.33333333333333337
vt 0 0
vt 1 1
vt 0.6666666666666666 1
vt 0.6666666666666666 0.6666666666666667
vt 1 0.6666666666666667
vn 1 0 0
vn -1 0 0
vn 0 1 0
vn 0 -1 0
vn 0 0 1
vn 0 0 -1
usemtl m_9a0c9d7d-e0fe-356a-6e3f-149857863392
f 2/1/1 1/2/1 3/3/1 4/4/1
f 7/5/2 5/6/2 6/7/2 8/8/2
f 5/9/3 1/10/3 2/11/3 6/12/3
f 4/13/4 3/14/4 7/15/4 8/16/4
f 3/17/5 1/18/5 5/19/5 7/20/5
f 6/21/6 2/22/6 4/23/6 8/24/6
o cube
v 0.25 1.25 0.25
v 0.25 1.25 -0.25
v 0.25 1 0.25
v 0.25 1 -0.25
v -0.25 1.25 0.25
v -0.25 1.25 -0.25
v -0.25 1 0.25
v -0.25 1 -0.25
vt 0.6666666666666666 0.33333333333333337
vt 0.5 0.33333333333333337
vt 0.5 0.25
vt 0.6666666666666666 0.25
vt 0.8333333333333334 0.41666666666666663
vt 0.8333333333333334 0.5
vt 0.6666666666666666 0.5
vt 0.6666666666666666 0.41666666666666663
vt 0.3333333333333333 0.16666666666666663
vt 0.5 0.16666666666666663
vt 0.5 0.33333333333333337
vt 0.3333333333333333 0.33333333333333337
vt 0.8333333333333334 0.5
vt 0.8333333333333334 0.6666666666666667
vt 0.6666666666666666 0.6666666666666667
vt 0.6666666666666666 0.5
vt 0.8333333333333334 0.33333333333333337
vt 0.8333333333333334 0.41666666666666663
vt 0.6666666666666666 0.41666666666666663
vt 0.6666666666666666 0.33333333333333337
vt 0.8333333333333334 0.33333333333333337
vt 0.6666666666666666 0.33333333333333337
vt 0.6666666666666666 0.25
vt 0.8333333333333334 0.25
vn 1 0 0
vn -1 0 0
vn 0 1 0
vn 0 -1 0
vn 0 0 1
vn 0 0 -1
usemtl m_9a0c9d7d-e0fe-356a-6e3f-149857863392
f 10/25/7 9/26/7 11/27/7 12/28/7
f 15/29/8 13/30/8 14/31/8 16/32/8
f 13/33/9 9/34/9 10/35/9 14/36/9
f 12/37/10 11/38/10 15/39/10 16/40/10
f 11/41/11 9/42/11 13/43/11 15/44/11
f 14/45/12 10/46/12 12/47/12 16/48/12