# Made in Blockbench 4.6.0
mtllib fishing_pole.mtl

o pole
v 1.42278108838584 3.505463178879473 -0.03790454924327603
v -0.9436805586223871 -1.0404673389836305 -0.037904657141759966
v 1.533551912812158 3.447799537520679 -0.04335697266394433
v -0.8329097341960692 -1.0981309803424244 -0.04335708056242827
v 1.4276174458107196 3.502945527589665 0.08697647845445611
v -0.9388442011975076 -1.0429849902734383 0.08697637055597218
v 1.5383882702370375 3.445281886230871 0.08152405503378782
v -0.8280733767711896 -1.1006486316322324 0.08152394713530386
vt 1 1
vt 0.02631578947368421 1
vt 0.02631578947368421 0.975
vt 1 0.975
vt 0.9736842105263158 0.925
vt 0.9736842105263158 0.95
vt 0 0.95
vt 0 0.925
vt 0 0
vt 0.02631578947368421 0
vt 0.02631578947368421 0.925
vt 0 0.925
vt 0.05263157894736842 0
vt 0.05263157894736842 0.925
vt 0.02631578947368421 0.925
vt 0.02631578947368421 0
vt 0.05263157894736842 0.95
vt 0.05263157894736842 0.975
vt 0.02631578947368421 0.975
vt 0.02631578947368421 0.95
vt 0.07894736842105263 0.975
vt 0.05263157894736842 0.975
vt 0.05263157894736842 0.95
vt 0.07894736842105263 0.95
vn -0.038690859399037075 0.020141210318462412 -0.9990482215818572
vn 0.038690859399037075 -0.020141210318462412 0.9990482215818572
vn -0.8861665954105423 0.46130913087035247 0.043619387365346575
vn 0.8861665954105423 -0.46130913087035247 -0.043619387365346575
vn 0.4617486140503857 0.8870108327537762 2.1053362712908363e-8
vn -0.4617486140503857 -0.8870108327537762 -2.1053362712908363e-8
usemtl m_5b877c44-0292-2a95-3296-95c09dc9ad54
f 2/1/1 1/2/1 3/3/1 4/4/1
f 7/5/2 5/6/2 6/7/2 8/8/2
f 5/9/3 1/10/3 2/11/3 6/12/3
f 4/13/4 3/14/4 7/15/4 8/16/4
f 3/17/5 1/18/5 5/19/5 7/20/5
f 6/21/6 2/22/6 4/23/6 8/24/6
o reel
v -0.1216073430043827 0.26854865742134526 -0.10711605144139658
v -0.35248165002957554 -0.17495675895554286 -0.10711606196807794
v 0.32147595470088863 0.03789409198616911 -0.12892574512406982
v 0.09060164767569573 -0.4056113243907191 -0.12892575565075118
v -0.1119346281546234 0.26351335484172966 0.14264600395406773
v -0.34280893517981625 -0.17999206153515845 0.14264599342738637
v 0.3311486695506479 0.03285878940655351 0.12083631027139449
v 0.10027436252545502 -0.4106466269703346 0.12083629974471313
vt 0.5263157894736842 0.925
vt 0.42105263157894735 0.925
vt 0.42105263157894735 0.825
vt 0.5263157894736842 0.825
vt 0.5263157894736842 0.725
vt 0.5263157894736842 0.825
vt 0.42105263157894735 0.825
vt 0.42105263157894735 0.725
vt 0.05263157894736842 0.825
vt 0.42105263157894735 0.825
vt 0.42105263157894735 0.925
vt 0.05263157894736842 0.925
vt 0.42105263157894735 0.725
vt 0.42105263157894735 0.825
vt 0.05263157894736842 0.825
vt 0.05263157894736842 0.725
vt 0.42105263157894735 0.625
vt 0.42105263157894735 0.725
vt 0.05263157894736842 0.725
vt 0.05263157894736842 0.625
vt 0.42105263157894735 0.625
vt 0.05263157894736842 0.625
vt 0.05263157894736842 0.525
vt 0.42105263157894735 0.525
vn -0.038690859399037075 0.020141210318462412 -0.9990482215818572
vn 0.038690859399037075 -0.020141210318462412 0.9990482215818572
vn -0.8861665954105423 0.46130913087035247 0.043619387365346575
vn 0.8861665954105423 -0.46130913087035247 -0.043619387365346575
vn 0.4617486140503857 0.8870108327537762 2.1053362712908363e-8
vn -0.4617486140503857 -0.8870108327537762 -2.1053362712908363e-8
usemtl m_5b877c44-0292-2a95-3296-95c09dc9ad54
f 10/25/7 9/26/7 11/27/7 12/28/7
f 15/29/8 13/30/8 14/31/8 16/32/8
f 13/33/9 9/34/9 10/35/9 14/36/9
f 12/37/10 11/38/10 15/39/10 16/40/10
f 11/41/11 9/42/11 13/43/11 15/44/11
f 14/45/12 10/46/12 12/47/12 16/48/12
o handle
v -0.17579051140567414 0.07471389360551672 -0.42062222591558573
v -0.2046497997328649 0.01927571653187843 -0.42062222591558573
v -0.12040509919251563 0.04588207292611868 -0.4233484376259181
v -0.1492643875197064 -0.009556104147519617 -0.4233484376259181
v -0.19255890312985469 0.012981594148722575 -0.10841965667125508
v -0.16369961480266393 0.06841977122236087 -0.10841965667125497
v -0.13717349091669617 -0.01585022653067536 -0.11114586838158735
v -0.10831420258950542 0.039587950542962935 -0.11114586838158735
vt 0.07894736842105263 0.975
vt 0.15789473684210525 0.975
vt 0.15789473684210525 0.9625
vt 0.07894736842105263 0.9625
vt 0 1
vt 0.013157894736842105 1
vt 0.013157894736842105 0.9875
vt 0 0.9875
vt 0.07894736842105263 0.9625
vt 0.15789473684210525 0.9625
vt 0.15789473684210525 0.95
vt 0.07894736842105263 0.95
vt 0 0.9875
vt 0.013157894736842105 0.9875
vt 0.013157894736842105 0.975
vt 0 0.975
vt 0.23684210526315788 0.9625
vt 0.15789473684210525 0.9625
vt 0.15789473684210525 0.975
vt 0.23684210526315788 0.975
vt 0.23684210526315788 0.9625
vt 0.15789473684210525 0.9625
vt 0.15789473684210525 0.95
vt 0.23684210526315788 0.95
vn -0.46174861323505095 -0.8870108331782129 -8.881784197001256e-16
vn -0.03869086912963295 0.02014119162609869 -0.9990482215818586
vn 0.46174861323505095 0.8870108331782129 8.881784197001256e-16
vn 0.03869086912963295 -0.02014119162609869 0.9990482215818586
vn -0.8861665954105364 0.4613091308703669 0.04361938736531723
vn 0.8861665954105364 -0.4613091308703669 -0.04361938736531723
usemtl m_5b877c44-0292-2a95-3296-95c09dc9ad54
f 20/52/13 23/51/13 21/50/13 18/49/13
f 19/56/14 20/55/14 18/54/14 17/53/14
f 24/60/15 19/59/15 17/58/15 22/57/15
f 23/64/16 24/63/16 22/62/16 21/61/16
f 22/68/17 17/67/17 18/66/17 21/65/17
f 23/72/18 20/71/18 19/70/18 24/69/18